<svg width="24" height="24" viewBox="0 0 24 24" fill="none" xmlns="http://www.w3.org/2000/svg">
<path d="M14.7525 23.2225C14.7558 23.1892 14.7577 23.1555 14.758 23.1215V15.02H17.5275C17.9715 15.02 18.371 14.7275 18.436 14.288C18.5231 13.6719 18.5206 13.0464 18.4285 12.431C18.3645 11.9995 17.9805 11.716 17.5445 11.716H14.758C14.758 9.219 15.1735 8.856 17.5155 8.81C17.965 8.8015 18.368 8.505 18.4335 8.06C18.5435 7.3125 18.4995 6.6595 18.4305 6.2C18.367 5.7755 17.9865 5.499 17.5575 5.5025C13.418 5.5385 11.0605 6.028 11.0605 11.7155H8.916C8.4995 11.7155 8.1295 11.977 8.066 12.3885C7.9985 12.8325 7.9575 13.476 8.071 14.2585C8.136 14.7105 8.543 15.02 8.9995 15.02H11.0605V23.247C7.8555 23.226 5.5615 23.0995 4.068 22.978C2.424 22.8445 1.1555 21.576 1.022 19.932C0.889 18.2965 0.75 15.7005 0.75 12C0.75 8.2995 0.889 5.7035 1.022 4.068C1.155 2.424 2.424 1.155 4.068 1.022C5.7035 0.889 8.2995 0.75 12 0.75C15.7005 0.75 18.2965 0.889 19.932 1.022C21.576 1.1555 22.8445 2.424 22.978 4.068C23.111 5.7035 23.25 8.2995 23.25 12C23.25 15.7005 23.111 18.2965 22.978 19.932C22.8445 21.576 21.576 22.8445 19.932 22.978C18.737 23.075 17.0295 23.175 14.7525 23.2225Z" fill="black"/>
</svg>
