<svg width="24" height="24" viewBox="0 0 24 24" fill="none" xmlns="http://www.w3.org/2000/svg">
<path fill-rule="evenodd" clip-rule="evenodd" d="M5 1C3.93913 1 2.92172 1.42143 2.17157 2.17157C1.42143 2.92172 1 3.93913 1 5V19C1 20.0609 1.42143 21.0783 2.17157 21.8284C2.92172 22.5786 3.93913 23 5 23H19C20.0609 23 21.0783 22.5786 21.8284 21.8284C22.5786 21.0783 23 20.0609 23 19V5C23 3.93913 22.5786 2.92172 21.8284 2.17157C21.0783 1.42143 20.0609 1 19 1H5ZM12 4.84C7.929 4.84 4.5 7.524 4.5 10.977C4.5 14.136 7.377 16.655 10.974 17.057C11.036 17.0621 11.0953 17.0847 11.145 17.122C11.159 17.1319 11.1707 17.1447 11.1793 17.1596C11.188 17.1744 11.1933 17.1909 11.195 17.208C11.2295 17.7128 11.1629 18.2193 10.999 18.698C10.9793 18.7497 10.9725 18.8053 10.9792 18.8602C10.9859 18.9151 11.0059 18.9675 11.0374 19.0129C11.069 19.0583 11.1111 19.0953 11.1601 19.1208C11.2092 19.1463 11.2637 19.1594 11.319 19.159C11.414 19.159 11.523 19.13 11.613 19.103C11.734 19.065 11.8531 19.0213 11.97 18.972C12.24 18.861 12.584 18.7 12.974 18.495C13.754 18.087 14.73 17.497 15.687 16.771C16.642 16.046 17.589 15.176 18.3 14.206C19.01 13.236 19.5 12.142 19.5 10.977C19.5 7.524 16.071 4.84 12 4.84ZM6.716 12.852V9.272H7.739V11.829H9.273V12.852H6.716ZM9.784 9.272V12.852H10.807V9.272H9.784ZM11.148 12.852V9.272H12.307L13.193 10.935V9.273H14.216V12.853H13.056L12.171 11.19V12.852H11.148ZM16.773 9.272H14.557V12.852H16.773V11.83H15.579V11.575H16.773V10.55H15.579V10.294H16.773V9.272Z" fill="black"/>
</svg>
