<svg width="36" height="36" viewBox="0 0 36 36" fill="none" xmlns="http://www.w3.org/2000/svg">
<g clip-path="url(#clip0_84_487)">
<path d="M0.562715 36H22.7337C22.8829 36 23.026 35.9408 23.1315 35.8353C23.237 35.7298 23.2962 35.5867 23.2962 35.4375V30.0581C23.3048 29.241 23.052 28.4425 22.5745 27.7794C22.097 27.1162 21.42 26.6231 20.6423 26.3721L14.9611 24.4783V22.6843C14.9611 22.6649 14.9601 22.6456 14.9582 22.6267C15.6773 22.06 16.2407 21.32 16.5957 20.4761C17.0066 20.475 17.4087 20.357 17.7551 20.1359C18.1015 19.9148 18.3778 19.5997 18.5518 19.2274C18.7258 18.8552 18.7903 18.4411 18.7378 18.0335C18.6852 17.6259 18.5178 17.2417 18.255 16.9258C18.3388 16.5382 18.4793 15.8229 18.54 15.4114C18.5585 15.2853 18.5768 15.1669 18.5942 15.055C18.7574 14.0035 18.8558 13.3688 18.2234 12.1781C17.5363 10.8854 16.486 9.82199 15.202 9.11888C13.9179 8.41578 12.4562 8.10371 10.997 8.22113C9.53778 8.33854 8.14479 8.88031 6.98969 9.77968C5.83459 10.679 4.96785 11.8967 4.49628 13.2826C4.48627 13.312 4.47872 13.3422 4.47371 13.3729C4.28618 14.5173 4.44558 15.712 4.94642 16.9268C4.68419 17.2426 4.51709 17.6264 4.46461 18.0335C4.41213 18.4406 4.47641 18.8542 4.64998 19.2262C4.82354 19.5981 5.09924 19.9131 5.44494 20.1344C5.79064 20.3556 6.19211 20.4741 6.60256 20.476C6.96764 21.3397 7.5495 22.0946 8.29182 22.6676C8.30588 22.6785 8.32071 22.6887 8.33506 22.6994V24.4783L2.65381 26.3721C1.8762 26.6231 1.19924 27.1163 0.721833 27.7794C0.244421 28.4426 -0.00843064 29.241 0.000214526 30.0581V35.4375C0.000214526 35.5867 0.0594778 35.7298 0.164967 35.8353C0.270456 35.9408 0.41353 36 0.562715 36ZM13.0304 28.5096L12.8041 29.8025H10.4922L10.29 28.6461C10.2797 28.5875 10.2601 28.5309 10.232 28.4785L11.6483 27.473L13.0412 28.4622C13.0371 28.4776 13.0333 28.4933 13.0304 28.5096ZM10.6455 30.9275H12.6516L13.3417 34.875H9.95471L10.6455 30.9275ZM22.1716 30.0581V34.875H19.4813V32.4137C19.4813 32.2645 19.4221 32.1214 19.3166 32.0159C19.2111 31.9104 19.068 31.8512 18.9188 31.8512C18.7697 31.8512 18.6266 31.9104 18.5211 32.0159C18.4156 32.1214 18.3563 32.2645 18.3563 32.4137V34.875H14.4837L13.7713 30.8024L14.0548 29.1817L15.665 30.3252C15.7492 30.3849 15.8481 30.4204 15.9511 30.4277C16.0541 30.4349 16.157 30.4137 16.2487 30.3664C16.3405 30.319 16.4174 30.2473 16.4711 30.1592C16.5248 30.071 16.5532 29.9698 16.5532 29.8666V26.1947L20.2868 27.4392C20.8392 27.6176 21.32 27.9681 21.659 28.4392C21.9981 28.9104 22.1775 29.4777 22.1712 30.0581H22.1716ZM15.4286 25.8196V28.7772L12.6203 26.7828L14.4404 25.4902L15.4286 25.8196ZM16.9445 19.2876C17.0571 18.637 17.0499 17.9713 16.9231 17.3233C17.1275 17.3924 17.3054 17.5233 17.4321 17.6979C17.5589 17.8724 17.6282 18.0821 17.6306 18.2978C17.6329 18.5136 17.5682 18.7247 17.4453 18.902C17.3224 19.0793 17.1474 19.2141 16.9445 19.2876ZM5.57663 13.6006C5.98485 12.4293 6.72578 11.4025 7.70867 10.6459C8.69156 9.88933 9.87374 9.43579 11.1105 9.34084C12.3472 9.24588 13.5848 9.51363 14.6716 10.1113C15.7585 10.709 16.6475 11.6106 17.2297 12.7058C17.6868 13.566 17.6352 13.8978 17.4825 14.8826C17.4647 14.9972 17.4459 15.1183 17.4269 15.2476C17.3885 15.5084 17.3152 15.9022 17.247 16.2449C17.0341 16.1769 16.8121 16.1423 16.5886 16.1424H16.5686C15.9326 14.0437 15.2142 12.9572 14.3148 12.7297C13.9204 12.6298 13.3059 12.6565 12.6195 13.3507C12.587 13.3835 12.5586 13.4201 12.5351 13.4598C11.5064 15.198 9.66931 16.0282 7.07597 15.9278C6.98731 15.9243 6.89909 15.942 6.81856 15.9792C6.73803 16.0165 6.66748 16.0723 6.61268 16.1421C6.36804 16.1421 6.12519 16.1837 5.89451 16.2652C5.55321 15.3449 5.4462 14.4504 5.57663 13.6006ZM5.57171 18.3093C5.57205 18.0993 5.63581 17.8942 5.75463 17.7211C5.87345 17.5479 6.0418 17.4146 6.23764 17.3387C6.12624 17.9822 6.12897 18.6403 6.24572 19.2829C6.0479 19.2082 5.8775 19.075 5.75712 18.9011C5.63674 18.7272 5.57208 18.5209 5.57171 18.3094V18.3093ZM7.45411 17.0613H7.49883C10.2646 17.0613 12.2702 16.0652 13.4651 14.0967C13.6339 13.935 13.8563 13.7737 14.0389 13.8203C14.2111 13.8638 14.8288 14.1965 15.5455 16.6479C15.5514 16.6681 15.5585 16.6879 15.5666 16.7073C15.9328 17.5822 15.9995 18.5536 15.7563 19.4703C15.5131 20.3871 14.9736 21.1977 14.2219 21.776C13.4701 22.3543 12.5482 22.6678 11.5998 22.6678C10.6513 22.6677 9.7295 22.3541 8.97779 21.7758C8.28155 21.2324 7.76423 20.4927 7.49262 19.6523C7.22101 18.8119 7.2076 17.9094 7.45411 17.0613ZM11.5997 23.7912C12.3711 23.7911 13.1336 23.6267 13.8364 23.3089V24.5391L11.6483 26.093L9.46006 24.5391V23.3529C10.1362 23.6424 10.8642 23.7915 11.5997 23.7912ZM8.85657 25.4902L10.6767 26.7828L7.86818 28.7772V25.8196L8.85657 25.4902ZM1.12521 30.0581C1.11891 29.4777 1.29838 28.9105 1.63741 28.4393C1.97643 27.9681 2.45724 27.6177 3.00959 27.4393L6.74318 26.1947V29.8667C6.74319 29.9699 6.7716 30.0711 6.8253 30.1593C6.87899 30.2474 6.95591 30.3191 7.04763 30.3664C7.13934 30.4138 7.24232 30.435 7.34528 30.4277C7.44824 30.4205 7.54721 30.385 7.63137 30.3252L9.24153 29.1819L9.52496 30.8025L8.81269 34.875H4.94002V32.4137C4.94002 32.2645 4.88076 32.1214 4.77527 32.0159C4.66978 31.9104 4.5267 31.8512 4.37752 31.8512C4.22833 31.8512 4.08526 31.9104 3.97977 32.0159C3.87428 32.1214 3.81502 32.2645 3.81502 32.4137V34.875H1.12521V30.0581ZM36.0002 12.4552C36.0002 12.6044 35.941 12.7474 35.8355 12.8529C35.73 12.9584 35.5869 13.0177 35.4377 13.0177H20.6239C20.4747 13.0177 20.3317 12.9584 20.2262 12.8529C20.1207 12.7474 20.0614 12.6044 20.0614 12.4552C20.0614 12.306 20.1207 12.1629 20.2262 12.0574C20.3317 11.9519 20.4747 11.8927 20.6239 11.8927H22.7588V8.39111C22.7588 8.24193 22.8181 8.09885 22.9236 7.99336C23.0291 7.88788 23.1721 7.82861 23.3213 7.82861C23.4705 7.82861 23.6136 7.88788 23.7191 7.99336C23.8246 8.09885 23.8838 8.24193 23.8838 8.39111V11.8927H25.8985V5.5346C25.8985 5.38541 25.9578 5.24234 26.0632 5.13685C26.1687 5.03136 26.3118 4.9721 26.461 4.9721C26.6102 4.9721 26.7532 5.03136 26.8587 5.13685C26.9642 5.24234 27.0235 5.38541 27.0235 5.5346V11.8927H29.0382V6.80845C29.0382 6.65926 29.0974 6.51619 29.2029 6.4107C29.3084 6.30521 29.4515 6.24595 29.6007 6.24595C29.7498 6.24595 29.8929 6.30521 29.9984 6.4107C30.1039 6.51619 30.1632 6.65926 30.1632 6.80845V11.8927H32.1779V3.91326C32.1779 3.76408 32.2371 3.621 32.3426 3.51551C32.4481 3.41002 32.5912 3.35076 32.7404 3.35076C32.8896 3.35076 33.0326 3.41002 33.1381 3.51551C33.2436 3.621 33.3029 3.76408 33.3029 3.91326V11.8927H35.4377C35.5869 11.8927 35.73 11.9519 35.8355 12.0574C35.941 12.1629 36.0002 12.306 36.0002 12.4552ZM32.359 0.14901C32.4689 0.0494151 32.6137 -0.00273022 32.7619 0.00392375C32.9101 0.0105777 33.0497 0.0754923 33.1502 0.184538C33.2508 0.293584 33.3042 0.437934 33.2988 0.586168C33.2935 0.734402 33.2298 0.874521 33.1216 0.976025L29.982 3.87121C29.9035 3.94352 29.8062 3.99204 29.7012 4.01111C29.5963 4.03019 29.4881 4.01903 29.3892 3.97893L26.5776 2.83818L23.6999 5.45627C23.5894 5.55578 23.444 5.60749 23.2955 5.60011C23.147 5.59273 23.0075 5.52685 22.9074 5.41687C22.8073 5.3069 22.7549 5.16177 22.7615 5.01323C22.7681 4.86469 22.8333 4.72482 22.9428 4.62419L26.0824 1.7676C26.1608 1.69618 26.2578 1.64839 26.3622 1.62972C26.4666 1.61106 26.5742 1.6223 26.6725 1.66213L29.4816 2.80183L32.359 0.14901ZM20.5017 17.7399C20.3768 17.7676 20.2651 17.8372 20.185 17.937C20.105 18.0368 20.0614 18.161 20.0614 18.2889V19.7086C20.0614 19.8366 20.105 19.9607 20.185 20.0605C20.2651 20.1604 20.3768 20.2299 20.5017 20.2577L20.9331 20.3537C21.0043 20.5733 21.0929 20.7869 21.198 20.9925L20.9607 21.3655C20.8919 21.4735 20.8621 21.6017 20.8761 21.7289C20.8901 21.8561 20.947 21.9748 21.0375 22.0653L22.0414 23.0689C22.1318 23.1594 22.2505 23.2163 22.3777 23.2303C22.5048 23.2443 22.633 23.2144 22.741 23.1458L23.114 22.9085C23.3196 23.0136 23.5332 23.1022 23.7529 23.1734L23.8488 23.6047C23.8766 23.7296 23.9461 23.8413 24.046 23.9214C24.1458 24.0014 24.2699 24.0451 24.3979 24.0451H25.8173C25.9453 24.0451 26.0694 24.0014 26.1693 23.9214C26.2691 23.8413 26.3386 23.7296 26.3664 23.6047L26.4623 23.1734C26.682 23.1022 26.8957 23.0137 27.1013 22.9085L27.474 23.1458C27.5819 23.2144 27.7101 23.2443 27.8373 23.2303C27.9645 23.2163 28.0831 23.1594 28.1736 23.0689L29.1774 22.0653C29.2679 21.9748 29.3249 21.8561 29.3389 21.7289C29.3528 21.6017 29.323 21.4735 29.2543 21.3655L29.017 20.9925C29.1221 20.7869 29.2107 20.5733 29.2819 20.3537L29.7132 20.2577C29.8381 20.2299 29.9498 20.1604 30.0299 20.0605C30.11 19.9607 30.1536 19.8366 30.1536 19.7086V18.2888C30.1536 18.1608 30.11 18.0367 30.0299 17.9369C29.9498 17.837 29.8381 17.7675 29.7132 17.7397L29.2819 17.6438C29.2107 17.4242 29.1221 17.2105 29.017 17.005L29.2543 16.6319C29.323 16.5239 29.3528 16.3957 29.3388 16.2685C29.3248 16.1413 29.2679 16.0227 29.1774 15.9322L28.1737 14.9285C28.0832 14.838 27.9645 14.7811 27.8373 14.7671C27.7101 14.7532 27.5819 14.783 27.474 14.8517L27.1013 15.0889C26.8957 14.9838 26.682 14.8953 26.4623 14.824L26.3664 14.3927C26.3386 14.2678 26.2691 14.1561 26.1693 14.0761C26.0694 13.996 25.9453 13.9524 25.8173 13.9524H24.3979C24.2699 13.9524 24.1458 13.996 24.046 14.0761C23.9462 14.1561 23.8766 14.2678 23.8488 14.3927L23.7529 14.824C23.5332 14.8952 23.3196 14.9838 23.114 15.0889L22.741 14.8517C22.633 14.783 22.5048 14.7532 22.3776 14.7671C22.2504 14.7811 22.1318 14.838 22.0413 14.9285L21.0377 15.9322C20.9472 16.0227 20.8903 16.1413 20.8763 16.2685C20.8623 16.3957 20.8921 16.5239 20.9608 16.6319L21.1981 17.005C21.093 17.2106 21.0044 17.4242 20.9332 17.6439L20.5017 17.7399ZM21.1864 18.7401L21.5058 18.6691C21.609 18.6461 21.7037 18.5945 21.779 18.5201C21.8542 18.4458 21.907 18.3517 21.9312 18.2487C22.0115 17.9074 22.1467 17.5815 22.3315 17.2835C22.3873 17.1936 22.4165 17.0897 22.4158 16.9839C22.4152 16.8781 22.3847 16.7747 22.3279 16.6854L22.1522 16.4088L22.5178 16.0432L22.7943 16.219C22.8836 16.2757 22.9869 16.3061 23.0926 16.3067C23.1983 16.3074 23.3021 16.2782 23.392 16.2226C23.69 16.0378 24.016 15.9026 24.3573 15.8223C24.4603 15.7981 24.5544 15.7454 24.6287 15.6701C24.7031 15.5949 24.7547 15.5002 24.7777 15.397L24.8487 15.0775H25.3659L25.4369 15.397C25.4599 15.5002 25.5115 15.5949 25.5859 15.6702C25.6602 15.7454 25.7543 15.7982 25.8573 15.8224C26.1986 15.9026 26.5246 16.0378 26.8226 16.2227C26.9125 16.2783 27.0163 16.3074 27.122 16.3068C27.2277 16.3061 27.331 16.2757 27.4203 16.219L27.6968 16.0432L28.0624 16.4088L27.8866 16.6854C27.8299 16.7747 27.7994 16.8781 27.7988 16.9839C27.7981 17.0897 27.8273 17.1936 27.8831 17.2835C28.0679 17.5815 28.2031 17.9075 28.2834 18.2489C28.3076 18.3518 28.3604 18.4459 28.4356 18.5202C28.5109 18.5945 28.6056 18.6461 28.7088 18.6691L29.0282 18.7401V19.2573L28.7088 19.3284C28.6056 19.3513 28.5109 19.403 28.4356 19.4773C28.3604 19.5517 28.3076 19.6457 28.2834 19.7487C28.2031 20.09 28.0679 20.416 27.8831 20.7139C27.8273 20.8039 27.7981 20.9077 27.7988 21.0135C27.7994 21.1193 27.8299 21.2228 27.8866 21.3121L28.0624 21.5886L27.6968 21.9542L27.4203 21.7784C27.331 21.7217 27.2276 21.6913 27.1219 21.6907C27.0162 21.6901 26.9125 21.7193 26.8226 21.7749C26.5246 21.9597 26.1986 22.0948 25.8573 22.1751C25.7543 22.1993 25.6603 22.2521 25.5859 22.3273C25.5116 22.4026 25.4599 22.4972 25.437 22.6005L25.3659 22.9199H24.8487L24.7778 22.6005C24.7548 22.4972 24.7032 22.4025 24.6288 22.3272C24.5544 22.252 24.4603 22.1992 24.3573 22.175C24.016 22.0948 23.69 21.9596 23.3921 21.7748C23.3022 21.7192 23.1984 21.69 23.0927 21.6907C22.987 21.6913 22.8836 21.7217 22.7944 21.7784L22.5179 21.9542L22.1522 21.5886L22.328 21.3121C22.3848 21.2228 22.4153 21.1193 22.4159 21.0135C22.4165 20.9077 22.3873 20.8039 22.3316 20.7139C22.1468 20.4159 22.0116 20.0899 21.9312 19.7486C21.907 19.6456 21.8542 19.5516 21.779 19.4773C21.7038 19.4029 21.6091 19.3513 21.5059 19.3284L21.1864 19.2573L21.1864 18.7401ZM25.1076 21.3821C25.579 21.3821 26.0399 21.2423 26.4319 20.9803C26.8238 20.7184 27.1294 20.3462 27.3098 19.9106C27.4902 19.4751 27.5374 18.9958 27.4454 18.5334C27.3534 18.0711 27.1264 17.6464 26.7931 17.313C26.4597 16.9796 26.035 16.7526 25.5726 16.6607C25.1103 16.5687 24.631 16.6159 24.1955 16.7963C23.7599 16.9767 23.3876 17.2822 23.1257 17.6742C22.8638 18.0662 22.724 18.527 22.724 18.9985C22.7247 19.6304 22.9761 20.2363 23.4229 20.6832C23.8698 21.13 24.4757 21.3814 25.1076 21.3821ZM25.1076 17.7399C25.3565 17.7399 25.5999 17.8137 25.8069 17.952C26.0138 18.0903 26.1751 18.2868 26.2704 18.5168C26.3657 18.7468 26.3906 18.9999 26.342 19.244C26.2935 19.4881 26.1736 19.7124 25.9976 19.8884C25.8216 20.0644 25.5973 20.1843 25.3532 20.2329C25.109 20.2814 24.8559 20.2565 24.626 20.1612C24.396 20.066 24.1994 19.9047 24.0611 19.6977C23.9228 19.4907 23.849 19.2474 23.849 18.9985C23.8494 18.6648 23.9821 18.3448 24.218 18.1089C24.454 17.8729 24.7739 17.7402 25.1076 17.7399Z" fill="#E2AC24"/>
</g>
<defs>
<clipPath id="clip0_84_487">
<rect width="36" height="36" fill="white"/>
</clipPath>
</defs>
</svg>
