<svg width="36" height="36" viewBox="0 0 36 36" fill="none" xmlns="http://www.w3.org/2000/svg">
<path d="M9.76034 21.5134C9.08937 21.5134 8.78008 21.2267 8.48099 20.9498L8.42523 20.8982C8.31089 20.7943 8.13325 20.8009 8.02779 20.9152C7.9226 21.0295 7.93027 21.2075 8.04454 21.3124L8.0989 21.3623C8.42389 21.6634 8.86907 22.0759 9.76034 22.0759C9.9158 22.0759 10.0416 21.9501 10.0416 21.7946C10.0416 21.6392 9.9158 21.5134 9.76034 21.5134Z" fill="#E2AC24"/>
<path d="M7.42606 20.7202C7.37607 20.5729 7.21703 20.496 7.06952 20.5438C5.86628 20.9508 4.06838 21.3178 2.59561 21.4562C2.44093 21.4711 2.32751 21.6079 2.34208 21.7628C2.3556 21.9083 2.47832 22.0176 2.62174 22.0176C2.63054 22.0176 2.63934 22.0171 2.64842 22.0165C4.16012 21.8742 6.00941 21.4963 7.24976 21.0766C7.39691 21.0267 7.47577 20.8674 7.42606 20.7202Z" fill="#E2AC24"/>
<path d="M17.9997 21.5134C17.329 21.5134 17.02 21.2272 16.7209 20.9498C16.6064 20.8444 16.4292 20.851 16.3235 20.9653C16.218 21.0789 16.2246 21.2569 16.3386 21.3629C16.6635 21.6639 17.1085 22.0759 17.9997 22.0759C18.1552 22.0759 18.281 21.9502 18.281 21.7947C18.281 21.6392 18.1552 21.5134 17.9997 21.5134Z" fill="#E2AC24"/>
<path d="M15.6838 20.7202C15.6338 20.5729 15.4751 20.496 15.3273 20.5438C14.1322 20.9482 12.3318 21.3146 10.8476 21.4546C10.6929 21.4695 10.5792 21.6068 10.5941 21.7611C10.6078 21.9067 10.7302 22.016 10.8737 22.016C10.8824 22.016 10.8915 22.0155 10.9003 22.0148C12.4239 21.8703 14.2753 21.4935 15.5075 21.0766C15.6547 21.0267 15.7335 20.8674 15.6838 20.7202Z" fill="#E2AC24"/>
<path d="M26.2397 21.5134C25.6277 21.5134 25.3196 21.2783 25.0329 21.0168C24.9186 20.9119 24.74 20.9196 24.6356 21.035C24.5307 21.1497 24.539 21.3272 24.6538 21.4321C24.9948 21.7436 25.4266 22.0759 26.2396 22.0759C26.3951 22.0759 26.521 21.9501 26.521 21.7947C26.521 21.6392 26.3952 21.5134 26.2397 21.5134Z" fill="#E2AC24"/>
<path d="M23.9448 20.7203C23.8954 20.573 23.7366 20.4961 23.5883 20.5439C22.422 20.9383 20.5758 21.3129 19.0987 21.4535C18.9438 21.4684 18.8307 21.6057 18.845 21.7606C18.8593 21.9061 18.9812 22.0149 19.1251 22.0149C19.1339 22.0149 19.1427 22.0144 19.1514 22.0138C20.6917 21.8666 22.5473 21.4903 23.7684 21.0767C23.9156 21.0268 23.9942 20.8675 23.9448 20.7203Z" fill="#E2AC24"/>
<path d="M33.4467 21.1669C33.3566 21.096 33.2765 21.0214 33.1995 20.9499C32.8754 20.65 32.5084 20.3106 31.8141 20.544C30.6298 20.9444 28.8357 21.3103 27.3492 21.4531C27.1944 21.4679 27.0812 21.6058 27.0966 21.7601C27.1103 21.9056 27.2329 22.0144 27.3756 22.0144C27.385 22.0144 27.3944 22.0138 27.4032 22.0134C28.9281 21.8662 30.7733 21.4899 31.9938 21.0768C32.3569 20.9561 32.5003 21.0681 32.8172 21.3625C32.9041 21.4433 32.9952 21.5268 33.0963 21.6075C33.2182 21.7047 33.3951 21.6838 33.4918 21.5624C33.5885 21.4405 33.5682 21.2636 33.4467 21.1669Z" fill="#E2AC24"/>
<path d="M10.2655 17.5763C9.64316 17.5763 9.36026 17.314 9.08666 17.0602C8.97239 16.9542 8.79469 16.9608 8.68922 17.0753C8.58375 17.189 8.5903 17.367 8.70429 17.4727C9.00725 17.7536 9.42222 18.1387 10.2654 18.1387C10.4209 18.1387 10.5468 18.013 10.5468 17.8575C10.5468 17.7021 10.4209 17.5763 10.2655 17.5763Z" fill="#E2AC24"/>
<path d="M8.11486 16.8423C8.06494 16.6951 7.90561 16.6173 7.75839 16.6659C6.6735 17.0331 5.02057 17.3729 3.64511 17.5116C3.49078 17.5273 3.37785 17.6652 3.39355 17.8198C3.40812 17.9648 3.53035 18.0728 3.67313 18.0728C3.68243 18.0728 3.69207 18.0722 3.70172 18.0714C5.11477 17.9288 6.81769 17.578 7.93856 17.1987C8.08571 17.149 8.16457 16.9892 8.11486 16.8423Z" fill="#E2AC24"/>
<path d="M18.0002 17.5762C17.433 17.5762 17.1483 17.359 16.8829 17.117C16.7687 17.0118 16.5907 17.0195 16.4858 17.1351C16.3808 17.2496 16.3891 17.4276 16.5039 17.5323C16.8253 17.8256 17.2323 18.1387 18.0002 18.1387C18.1557 18.1387 18.2815 18.0129 18.2815 17.8575C18.2815 17.702 18.1557 17.5762 18.0002 17.5762Z" fill="#E2AC24"/>
<path d="M15.8473 16.8423C15.7974 16.6951 15.6369 16.6174 15.4908 16.666C14.4028 17.0343 12.7472 17.3746 11.3709 17.5127C11.2163 17.5284 11.1037 17.666 11.1191 17.8206C11.1337 17.9657 11.2559 18.0739 11.3987 18.0739C11.408 18.0739 11.4174 18.0733 11.427 18.0725C12.8414 17.9305 14.547 17.5795 15.6709 17.1988C15.8182 17.1489 15.897 16.9893 15.8473 16.8423Z" fill="#E2AC24"/>
<path d="M25.7343 17.5763C25.1807 17.5763 24.8939 17.3637 24.6697 17.1645C24.5533 17.0624 24.3764 17.0728 24.2721 17.1887C24.1693 17.3049 24.1804 17.4828 24.2963 17.5858C24.605 17.8591 25.0175 18.1387 25.7344 18.1387C25.8899 18.1387 26.0155 18.013 26.0155 17.8575C26.0155 17.7021 25.8898 17.5763 25.7343 17.5763Z" fill="#E2AC24"/>
<path d="M23.5836 16.8423C23.5336 16.6951 23.3743 16.6173 23.227 16.6659C22.1378 17.0348 20.4783 17.3754 19.0968 17.5138C18.9425 17.5292 18.8292 17.6671 18.8447 17.8217C18.8595 17.9667 18.982 18.0749 19.1248 18.0749C19.1336 18.0749 19.1435 18.0745 19.1528 18.0735C20.5722 17.9313 22.2822 17.5797 23.4072 17.1987C23.5544 17.149 23.6336 16.9892 23.5836 16.8423Z" fill="#E2AC24"/>
<path d="M32.3988 17.1604L32.2791 17.0507C31.9715 16.7659 31.6243 16.4424 30.9618 16.6659C29.8687 17.0362 28.2054 17.377 26.8233 17.5144C26.669 17.5297 26.5563 17.6674 26.5717 17.822C26.586 17.9673 26.708 18.0755 26.8507 18.0755C26.8607 18.0755 26.8695 18.0749 26.8793 18.0742C28.2998 17.9333 30.0126 17.5814 31.1419 17.1988C31.4858 17.0834 31.6144 17.2021 31.8967 17.4633L32.0253 17.5811C32.1407 17.6833 32.3186 17.6732 32.4224 17.5575C32.5251 17.4413 32.5152 17.2636 32.3988 17.1604Z" fill="#E2AC24"/>
<path d="M10.7381 14.2012C10.2085 14.2012 9.95034 14.004 9.69054 13.7656C9.57606 13.6602 9.39829 13.6676 9.29338 13.7826C9.18819 13.8969 9.19587 14.0749 9.31042 14.1798C9.61803 14.4624 10.0074 14.7637 10.7381 14.7637C10.8935 14.7637 11.0193 14.6379 11.0193 14.4825C11.0193 14.327 10.8935 14.2012 10.7381 14.2012Z" fill="#E2AC24"/>
<path d="M8.70532 13.5264C8.65582 13.3792 8.49628 13.3001 8.34906 13.3498C7.3331 13.692 5.80408 14.009 4.54451 14.1383C4.39018 14.1543 4.27781 14.2925 4.29344 14.4471C4.3083 14.5918 4.43053 14.6995 4.5731 14.6995C4.58274 14.6995 4.59232 14.6989 4.60218 14.6982C5.91927 14.5627 7.4606 14.2427 8.52874 13.8827C8.67596 13.8332 8.7551 13.6736 8.70532 13.5264Z" fill="#E2AC24"/>
<path d="M18.0043 14.2013C17.4896 14.2013 17.2235 14.0032 17.0144 13.8178C16.898 13.7143 16.72 13.7247 16.6173 13.8417C16.5142 13.9579 16.5247 14.1356 16.6411 14.2386C16.9337 14.4983 17.3248 14.7637 18.0043 14.7637C18.1598 14.7637 18.2855 14.638 18.2855 14.4825C18.2855 14.3271 18.1599 14.2013 18.0043 14.2013Z" fill="#E2AC24"/>
<path d="M15.99 13.5263C15.9408 13.3797 15.7807 13.3 15.6337 13.3498C14.6249 13.6895 13.0926 14.0059 11.8204 14.1372C11.6658 14.1532 11.5534 14.2916 11.5694 14.4459C11.5845 14.5907 11.7064 14.6983 11.849 14.6983C11.8585 14.6983 11.8682 14.6978 11.8781 14.697C13.1877 14.5616 14.7691 14.2345 15.8134 13.8826C15.9606 13.8331 16.0397 13.6736 15.99 13.5263Z" fill="#E2AC24"/>
<path d="M25.2707 14.2012C24.8071 14.2012 24.5566 14.0473 24.3539 13.8812C24.2336 13.7821 24.0561 13.8007 23.9578 13.9199C23.8595 14.0399 23.8766 14.2172 23.9969 14.3157C24.2507 14.5245 24.6248 14.7637 25.2708 14.7637C25.4262 14.7637 25.552 14.6379 25.552 14.4825C25.552 14.327 25.4262 14.2012 25.2707 14.2012Z" fill="#E2AC24"/>
<path d="M23.2782 13.5263C23.2287 13.3797 23.0689 13.3 22.9216 13.3498C21.9208 13.6867 20.3838 14.0031 19.0957 14.1366C18.9413 14.1528 18.8293 14.291 18.8447 14.4456C18.8601 14.5901 18.982 14.6978 19.1248 14.6978C19.1341 14.6978 19.144 14.6972 19.1539 14.6964C20.4788 14.5588 22.0652 14.2317 23.1018 13.8826C23.249 13.8331 23.3282 13.6736 23.2782 13.5263Z" fill="#E2AC24"/>
<path d="M31.5011 13.776L31.4319 13.712C31.1529 13.4544 30.8064 13.1336 30.1774 13.3498C29.1753 13.687 27.6455 14.0026 26.3711 14.135C26.2167 14.1512 26.1047 14.2894 26.1201 14.444C26.1354 14.5885 26.2574 14.6961 26.4002 14.6961C26.4095 14.6961 26.4194 14.6956 26.4292 14.6947C27.7405 14.5582 29.3192 14.2319 30.3574 13.8823C30.6562 13.7812 30.7683 13.8647 31.0495 14.1251L31.1231 14.1924C31.238 14.297 31.416 14.2885 31.5204 14.1735C31.6248 14.0583 31.6165 13.8806 31.5011 13.776Z" fill="#E2AC24"/>
<path d="M11.1091 11.3886C10.6246 11.3886 10.3816 11.2082 10.1739 11.0234C10.0583 10.9201 9.88063 10.9297 9.77706 11.0462C9.67349 11.1621 9.68363 11.3398 9.7998 11.4431C10.0816 11.6944 10.4574 11.9512 11.1091 11.9512C11.2646 11.9512 11.3904 11.8253 11.3904 11.6699C11.3904 11.5144 11.2646 11.3886 11.1091 11.3886Z" fill="#E2AC24"/>
<path d="M9.19794 10.7592C9.14824 10.6119 8.98862 10.5328 8.84169 10.582C7.88289 10.9045 6.48976 11.1951 5.29257 11.3228C5.13796 11.3393 5.02615 11.4777 5.04263 11.6321C5.05797 11.7765 5.17992 11.8836 5.32193 11.8836C5.33178 11.8836 5.34199 11.8831 5.35192 11.882C6.5865 11.7505 8.02652 11.4497 9.0208 11.1154C9.16802 11.0657 9.24737 10.9064 9.19794 10.7592Z" fill="#E2AC24"/>
<path d="M17.9998 11.3887C17.5607 11.3887 17.3214 11.2396 17.1283 11.0784C17.0091 10.979 16.8322 10.9949 16.7323 11.1141C16.6328 11.2333 16.6488 11.4104 16.768 11.5101C17.0137 11.7156 17.3761 11.9512 17.9998 11.9512C18.1552 11.9512 18.2811 11.8254 18.2811 11.6699C18.2811 11.5145 18.1552 11.3887 17.9998 11.3887Z" fill="#E2AC24"/>
<path d="M16.1073 10.7592C16.0576 10.612 15.898 10.5329 15.751 10.5821C14.8122 10.8976 13.3783 11.1954 12.1829 11.3228C12.0286 11.3393 11.9168 11.4777 11.9333 11.6323C11.9486 11.7765 12.0705 11.8836 12.2126 11.8836C12.2224 11.8836 12.2326 11.8831 12.2428 11.8821C13.4747 11.7508 14.9564 11.4426 15.9301 11.1155C16.0774 11.0658 16.1567 10.9064 16.1073 10.7592Z" fill="#E2AC24"/>
<path d="M24.8907 11.3887C24.4793 11.3887 24.2481 11.2547 24.0932 11.138C23.969 11.0449 23.7921 11.0693 23.6988 11.194C23.6059 11.3181 23.6306 11.4945 23.7547 11.5879C24.0854 11.8358 24.4458 11.9512 24.8907 11.9512C25.0462 11.9512 25.172 11.8254 25.172 11.67C25.172 11.5145 25.0462 11.3887 24.8907 11.3887Z" fill="#E2AC24"/>
<path d="M23.0207 10.7592C22.9714 10.612 22.8121 10.5329 22.6643 10.5821C21.7366 10.8941 20.3028 11.191 19.0954 11.3206C18.9405 11.3371 18.8284 11.4758 18.8455 11.6301C18.8609 11.7746 18.9828 11.8814 19.125 11.8814C19.1349 11.8814 19.1448 11.8809 19.1546 11.8798C20.3988 11.7464 21.8815 11.4391 22.8433 11.1155C22.9911 11.0658 23.0702 10.9064 23.0207 10.7592Z" fill="#E2AC24"/>
<path d="M30.7413 10.9282C30.4749 10.6821 30.1431 10.3761 29.5383 10.5821C28.6116 10.8938 27.1872 11.1902 25.9947 11.3195C25.8398 11.3363 25.7288 11.475 25.7453 11.6293C25.7607 11.7734 25.8826 11.8803 26.0243 11.8803C26.0347 11.8803 26.0452 11.8797 26.0551 11.8788C27.3032 11.7434 28.7412 11.4437 29.7189 11.1149C29.9936 11.0204 30.0925 11.0943 30.3606 11.3426C30.4743 11.4481 30.6517 11.4398 30.7577 11.3264C30.8627 11.2121 30.855 11.0337 30.7413 10.9282Z" fill="#E2AC24"/>
<path d="M9.14051 26.0135C8.4116 26.0135 8.07597 25.7026 7.75132 25.4021C7.40746 25.0836 7.0172 24.721 6.28194 24.9715C4.61063 25.5362 1.86267 26.0135 0.281203 26.0135C0.125746 26.0135 0 26.1393 0 26.2948C0 26.4502 0.125746 26.576 0.281203 26.576C1.94096 26.576 4.71364 26.0954 6.46211 25.5043C6.88152 25.3642 7.04409 25.5141 7.3693 25.8146C7.71626 26.1359 8.19108 26.576 9.14058 26.576C9.29604 26.576 9.42179 26.4502 9.42179 26.2948C9.42179 26.1393 9.29597 26.0135 9.14051 26.0135Z" fill="#E2AC24"/>
<path d="M18 26.0135C17.2711 26.0135 16.9355 25.7026 16.6108 25.4021C16.2672 25.0836 15.8769 24.721 15.1414 24.9715C13.4701 25.5362 10.7221 26.0135 9.14065 26.0135C8.98519 26.0135 8.85938 26.1393 8.85938 26.2948C8.85938 26.4502 8.98519 26.576 9.14065 26.576C10.8004 26.576 13.5731 26.0954 15.3215 25.5043C15.7404 25.3642 15.9035 25.5141 16.2287 25.8146C16.5757 26.1359 17.0505 26.576 18 26.576C18.1555 26.576 18.2813 26.4502 18.2813 26.2948C18.2813 26.1393 18.1555 26.0135 18 26.0135Z" fill="#E2AC24"/>
<path d="M26.8593 26.0135C26.1299 26.0135 25.7948 25.7026 25.4701 25.4021C25.1263 25.0836 24.7362 24.721 24.0008 24.9715C22.3297 25.5362 19.5816 26.0135 18 26.0135C17.8446 26.0135 17.7188 26.1393 17.7188 26.2948C17.7188 26.4502 17.8446 26.576 18 26.576C19.6601 26.576 22.4325 26.0954 24.1809 25.5043C24.5984 25.3642 24.7633 25.5141 25.0878 25.8146C25.4345 26.1359 25.9102 26.576 26.8594 26.576C27.0149 26.576 27.1405 26.4502 27.1405 26.2948C27.1405 26.1393 27.0148 26.0135 26.8593 26.0135Z" fill="#E2AC24"/>
<path d="M35.7186 26.0135C34.9892 26.0135 34.6541 25.7026 34.3294 25.4021C33.9851 25.0836 33.5961 24.721 32.8601 24.9715C31.189 25.5362 28.4408 26.0135 26.8593 26.0135C26.7039 26.0135 26.5781 26.1393 26.5781 26.2948C26.5781 26.4502 26.7039 26.576 26.8593 26.576C28.5194 26.576 31.2918 26.0954 33.0402 25.5043C33.4583 25.3642 33.622 25.5141 33.9471 25.8146C34.2938 26.1359 34.7695 26.576 35.7187 26.576C35.8742 26.576 35.9998 26.4502 35.9998 26.2948C35.9998 26.1393 35.8741 26.0135 35.7186 26.0135Z" fill="#E2AC24"/>
<path d="M9.14051 27.1385C8.4116 27.1385 8.07597 26.8276 7.75132 26.5271C7.40746 26.2085 7.0172 25.8459 6.28194 26.0964C4.61063 26.6611 1.86267 27.1385 0.281203 27.1385C0.125746 27.1385 0 27.2643 0 27.4198C0 27.5752 0.125746 27.701 0.281203 27.701C1.94096 27.701 4.71364 27.2203 6.46211 26.6293C6.88152 26.4892 7.04409 26.639 7.3693 26.9396C7.71626 27.2609 8.19108 27.7009 9.14058 27.7009C9.29604 27.7009 9.42186 27.5751 9.42179 27.4198C9.42179 27.2643 9.29597 27.1385 9.14051 27.1385Z" fill="#E2AC24"/>
<path d="M18 27.1385C17.2711 27.1385 16.9355 26.8276 16.6108 26.5271C16.2672 26.2085 15.8769 25.8459 15.1414 26.0964C13.4701 26.6611 10.7221 27.1385 9.14065 27.1385C8.98519 27.1385 8.85938 27.2643 8.85938 27.4198C8.85938 27.5752 8.98519 27.701 9.14065 27.701C10.8004 27.701 13.5731 27.2203 15.3215 26.6293C15.7404 26.4892 15.9035 26.639 16.2287 26.9396C16.5757 27.2609 17.0505 27.7009 18 27.7009C18.1555 27.7009 18.2813 27.5751 18.2813 27.4198C18.2813 27.2643 18.1555 27.1385 18 27.1385Z" fill="#E2AC24"/>
<path d="M26.8593 27.1385C26.1299 27.1385 25.7948 26.8276 25.4701 26.5271C25.1263 26.2085 24.7362 25.8459 24.0008 26.0964C22.3297 26.6611 19.5816 27.1385 18 27.1385C17.8446 27.1385 17.7188 27.2643 17.7188 27.4198C17.7188 27.5752 17.8446 27.701 18 27.701C19.6601 27.701 22.4325 27.2203 24.1809 26.6293C24.5984 26.4892 24.7633 26.639 25.0878 26.9396C25.4345 27.2609 25.9102 27.7009 26.8594 27.7009C27.0149 27.7009 27.1406 27.5751 27.1405 27.4198C27.1405 27.2643 27.0148 27.1385 26.8593 27.1385Z" fill="#E2AC24"/>
<path d="M35.7186 27.1385C34.9892 27.1385 34.6541 26.8276 34.3294 26.5271C33.9851 26.2085 33.5961 25.8459 32.8601 26.0964C31.189 26.6611 28.4408 27.1385 26.8593 27.1385C26.7039 27.1385 26.5781 27.2643 26.5781 27.4198C26.5781 27.5752 26.7039 27.701 26.8593 27.701C28.5194 27.701 31.2918 27.2203 33.0402 26.6293C33.4583 26.4892 33.622 26.639 33.9471 26.9396C34.2938 27.2609 34.7695 27.7009 35.7187 27.7009C35.8742 27.7009 35.9999 27.5751 35.9998 27.4198C35.9998 27.2643 35.8741 27.1385 35.7186 27.1385Z" fill="#E2AC24"/>
<path d="M11.3907 9.13867C10.8751 9.13867 10.6461 8.92639 10.4035 8.70145C10.1457 8.46249 9.824 8.1658 9.23568 8.36497C7.98765 8.78431 5.9477 9.13867 4.78127 9.13867C4.62582 9.13867 4.5 9.26449 4.5 9.41994C4.5 9.5754 4.62582 9.70122 4.78127 9.70122C6.0186 9.70122 8.09721 9.34109 9.41557 8.89809C9.67487 8.80966 9.76767 8.87936 10.0212 9.11396C10.2885 9.36165 10.6546 9.70114 11.3907 9.70114C11.5461 9.70114 11.672 9.5754 11.672 9.41994C11.672 9.26449 11.5461 9.13867 11.3907 9.13867Z" fill="#E2AC24"/>
<path d="M18.0001 9.13867C17.4845 9.13867 17.2554 8.92639 17.0129 8.70145C16.755 8.46249 16.4334 8.1658 15.8451 8.36497C14.597 8.78431 12.5571 9.13867 11.3906 9.13867C11.2352 9.13867 11.1094 9.26449 11.1094 9.41994C11.1094 9.5754 11.2352 9.70122 11.3906 9.70122C12.628 9.70122 14.7066 9.34109 16.0249 8.89809C16.2845 8.80966 16.3773 8.87936 16.6306 9.11396C16.8978 9.36165 17.2639 9.70114 18 9.70114C18.1554 9.70114 18.2813 9.5754 18.2813 9.41994C18.2813 9.26449 18.1555 9.13867 18.0001 9.13867Z" fill="#E2AC24"/>
<path d="M24.6094 9.13868C24.0931 9.13868 23.8634 8.92613 23.6206 8.7009C23.3625 8.46222 23.0417 8.16476 22.4545 8.36499C21.2064 8.78433 19.1668 9.13868 18 9.13868C17.8446 9.13868 17.7188 9.2645 17.7188 9.41995C17.7188 9.57541 17.8446 9.70123 18 9.70123C19.2371 9.70123 21.3157 9.3411 22.6352 8.89782C22.8928 8.80996 22.9856 8.87966 23.2383 9.11369C23.5064 9.36166 23.8733 9.70115 24.6094 9.70115C24.7649 9.70115 24.8906 9.57541 24.8906 9.41995C24.8906 9.2645 24.7649 9.13868 24.6094 9.13868Z" fill="#E2AC24"/>
<path d="M31.2188 9.13868C30.7024 9.13868 30.4728 8.92613 30.2299 8.7009C29.9718 8.46222 29.6521 8.16476 29.0638 8.36499C27.8158 8.78433 25.7761 9.13868 24.6094 9.13868C24.4539 9.13868 24.3281 9.2645 24.3281 9.41995C24.3281 9.57541 24.4539 9.70123 24.6094 9.70123C25.8464 9.70123 27.9251 9.3411 29.2445 8.89782C29.5027 8.80996 29.5949 8.87966 29.8476 9.11369C30.1157 9.36166 30.4827 9.70115 31.2188 9.70115C31.3742 9.70115 31.5 9.57541 31.5 9.41995C31.5 9.2645 31.3742 9.13868 31.2188 9.13868Z" fill="#E2AC24"/>
<path d="M4.85378 9.14827C4.70515 9.10905 4.54969 9.19748 4.50963 9.34745L0.00960766 26.2222C-0.030524 26.3721 0.0587513 26.5265 0.208717 26.5666C0.233148 26.5732 0.257368 26.576 0.281517 26.576C0.405714 26.576 0.51935 26.493 0.552863 26.3672L5.05289 9.49242C5.09302 9.34217 5.00375 9.18812 4.85378 9.14827Z" fill="#E2AC24"/>
<path d="M35.99 26.2222L31.49 9.3475C31.4504 9.19718 31.2967 9.10875 31.1461 9.14832C30.9962 9.18817 30.9067 9.34222 30.9473 9.49247L35.4473 26.3672C35.4802 26.493 35.5944 26.576 35.7186 26.576C35.7428 26.576 35.767 26.5726 35.7912 26.5667C35.9412 26.5265 36.0306 26.3722 35.99 26.2222Z" fill="#E2AC24"/>
<path d="M33.2243 25.1752L29.4274 8.56909C29.3928 8.41722 29.2412 8.32239 29.0907 8.35759C28.9391 8.39223 28.8446 8.54304 28.8792 8.69434L32.6761 25.3004C32.7057 25.4306 32.8217 25.519 32.9502 25.519C32.9712 25.519 32.992 25.5168 33.0128 25.5119C33.1644 25.4773 33.2589 25.3268 33.2243 25.1752Z" fill="#E2AC24"/>
<path d="M22.8242 8.60558C22.8099 8.45069 22.6699 8.33536 22.5176 8.35155C22.3634 8.36613 22.2497 8.50321 22.2639 8.65782L23.8108 25.2636C23.8245 25.4097 23.947 25.519 24.0909 25.519C24.0997 25.519 24.1085 25.5185 24.1174 25.5179C24.2717 25.5037 24.3854 25.3663 24.3711 25.2119L22.8242 8.60558Z" fill="#E2AC24"/>
<path d="M15.9464 8.35071C15.8022 8.33973 15.6604 8.4647 15.6536 8.61987L14.9505 25.2257C14.9438 25.3812 15.0644 25.5124 15.2196 25.519C15.2235 25.519 15.2276 25.519 15.2317 25.519C15.3814 25.519 15.5061 25.401 15.5124 25.2499L16.2155 8.64346C16.2221 8.48828 16.1015 8.35726 15.9464 8.35071Z" fill="#E2AC24"/>
<path d="M9.37432 8.35492C9.22027 8.32655 9.07551 8.42955 9.04834 8.58255L6.09521 25.1884C6.06803 25.3417 6.16991 25.4878 6.3229 25.5147C6.33938 25.5174 6.35613 25.519 6.37233 25.519C6.50603 25.519 6.62474 25.4235 6.64888 25.2872L9.60201 8.68091C9.62926 8.52791 9.52731 8.3821 9.37432 8.35492Z" fill="#E2AC24"/>
<path d="M11.4278 9.14122C11.2729 9.12256 11.1325 9.22909 11.1119 9.38292L8.8619 26.2574C8.84127 26.4117 8.94955 26.5529 9.1036 26.5738C9.1162 26.5754 9.12859 26.576 9.14092 26.576C9.2799 26.576 9.40043 26.4732 9.41951 26.3321L11.6695 9.45706C11.6901 9.30322 11.5818 9.16178 11.4278 9.14122Z" fill="#E2AC24"/>
<path d="M18 9.13867C17.8446 9.13867 17.7188 9.26449 17.7188 9.41995V26.2947C17.7188 26.4501 17.8446 26.5759 18 26.5759C18.1555 26.5759 18.2813 26.4501 18.2813 26.2947V9.41995C18.2813 9.26449 18.1555 9.13867 18 9.13867Z" fill="#E2AC24"/>
<path d="M27.1382 26.2573L24.8882 9.38286C24.8673 9.22909 24.7279 9.1225 24.5718 9.14116C24.418 9.16179 24.3098 9.30316 24.3301 9.457L26.5801 26.332C26.5993 26.4732 26.7197 26.576 26.8591 26.576C26.8712 26.576 26.8834 26.5754 26.8964 26.5737C27.0503 26.5528 27.1585 26.4116 27.1382 26.2573Z" fill="#E2AC24"/>
<path d="M35.7187 26.0135C35.5632 26.0135 35.4375 26.1392 35.4375 26.2947V27.4197C35.4375 27.5751 35.5632 27.7009 35.7187 27.7009C35.8742 27.7009 35.9999 27.5751 35.9999 27.4197V26.2947C35.9999 26.1392 35.8742 26.0135 35.7187 26.0135Z" fill="#E2AC24"/>
<path d="M0.281203 26.0135C0.125746 26.0135 0 26.1392 0 26.2947V27.4197C0 27.5751 0.125746 27.7009 0.281203 27.7009C0.436661 27.7009 0.562477 27.5751 0.562477 27.4197V26.2947C0.562477 26.1392 0.436661 26.0135 0.281203 26.0135Z" fill="#E2AC24"/>
</svg>
