<svg width="36" height="36" viewBox="0 0 36 36" fill="none" xmlns="http://www.w3.org/2000/svg">
<g clip-path="url(#clip0_84_299)">
<path d="M30.9942 30.5895H29.5219C29.4478 30.5894 29.375 30.6089 29.3108 30.6459C29.2466 30.683 29.1933 30.7362 29.1563 30.8004L28.4203 32.0755C28.3833 32.1396 28.3638 32.2123 28.3638 32.2864C28.3638 32.3605 28.3833 32.4332 28.4203 32.4973L29.1564 33.7723C29.1934 33.8365 29.2467 33.8898 29.3109 33.9268C29.3751 33.9638 29.4479 33.9833 29.522 33.9833H30.9943C31.0684 33.9833 31.1412 33.9638 31.2054 33.9268C31.2696 33.8898 31.3229 33.8365 31.3599 33.7723L32.0961 32.4973C32.1331 32.4332 32.1526 32.3605 32.1526 32.2864C32.1526 32.2123 32.1331 32.1396 32.0961 32.0755L31.3594 30.8004C31.3223 30.7363 31.2691 30.6831 31.205 30.646C31.1409 30.609 31.0682 30.5895 30.9942 30.5895ZM30.7506 33.1395H29.7654L29.2733 32.2864L29.7654 31.4332H30.7506L31.2428 32.2864L30.7506 33.1395Z" fill="#E2AC24"/>
<path d="M20.4915 20.8464C19.2645 20.5406 18.0838 20.0726 16.9806 19.4546L16.1038 18.9728V18.5761C16.9266 17.8415 17.4707 16.8454 17.6443 15.7561L17.9569 13.762C18.2171 13.7363 18.4635 13.6324 18.6634 13.464C18.8634 13.2955 19.0077 13.0704 19.0772 12.8184C19.1467 12.5663 19.1382 12.2991 19.0528 12.0519C18.9674 11.8048 18.8091 11.5893 18.5988 11.4339C18.7473 10.9987 18.8601 10.5521 18.9363 10.0986H19.0805C19.3755 10.099 19.661 9.99394 19.8854 9.80245C20.1098 9.61096 20.2585 9.34559 20.3045 9.05418C20.3505 8.76278 20.291 8.46451 20.1365 8.21316C19.982 7.96181 19.7429 7.7739 19.4621 7.68333C19.4052 6.22329 18.9133 4.81357 18.0494 3.63516C17.239 2.52951 16.1075 1.70055 14.809 1.2612L14.8551 0.816961C14.8612 0.758192 14.8548 0.698798 14.8365 0.642625C14.8182 0.586453 14.7883 0.534755 14.7487 0.490881C14.7091 0.447006 14.6608 0.411933 14.6068 0.387934C14.5528 0.363934 14.4944 0.351543 14.4353 0.351563H11.2305C11.1715 0.351562 11.113 0.363968 11.0591 0.387976C11.0051 0.411985 10.9568 0.447061 10.9172 0.490933C10.8777 0.534805 10.8478 0.586496 10.8294 0.642659C10.8111 0.698821 10.8048 0.758204 10.8109 0.816961L10.857 1.26127C9.55747 1.70191 8.42572 2.53303 7.61633 3.64106C6.7552 4.81851 6.26389 6.22556 6.20495 7.68312C5.92407 7.77355 5.68476 7.96137 5.53016 8.21271C5.37556 8.46404 5.31586 8.76235 5.36182 9.05382C5.40779 9.34529 5.55638 9.61075 5.78082 9.80231C6.00526 9.99388 6.29076 10.0989 6.58583 10.0986H6.69453C6.77085 10.4469 6.8754 10.7885 7.00714 11.1199L7.16703 11.5218C6.98316 11.6908 6.85211 11.9093 6.7897 12.1511C6.72728 12.3929 6.73616 12.6475 6.81527 12.8844C6.89438 13.1212 7.04034 13.3301 7.23553 13.4858C7.43072 13.6415 7.66681 13.7375 7.9153 13.762L8.22791 15.7561C8.38681 16.7545 8.85768 17.677 9.57306 18.3914V19.1192L8.69527 19.56C8.64162 19.5746 8.59143 19.5999 8.54762 19.6341L8.46141 19.6774C7.41469 20.1931 6.31159 20.5854 5.17431 20.8464C3.88126 21.1536 2.73001 21.8888 1.90753 22.9328C1.08504 23.9767 0.639615 25.2681 0.643581 26.5971V35.2266C0.643581 35.3385 0.688028 35.4458 0.767145 35.5249C0.846262 35.604 0.953568 35.6484 1.06546 35.6484H24.6003C24.7122 35.6484 24.8195 35.604 24.8986 35.5249C24.9777 35.4458 25.0222 35.3385 25.0222 35.2266V26.5971C25.0262 25.2681 24.5807 23.9768 23.7583 22.9328C22.9358 21.8888 21.7846 21.1536 20.4915 20.8464ZM4.85066 34.8047H1.48733V26.5971C1.48425 25.5508 1.8062 24.5295 2.40869 23.6741C3.01119 22.8187 3.86448 22.1716 4.85066 21.8221V34.8047ZM10.5924 2.26997C10.8601 2.14849 11.1372 2.04922 11.4211 1.97318C11.5182 1.94736 11.6029 1.88772 11.6599 1.80501C11.717 1.72229 11.7426 1.62193 11.7323 1.52198L11.6984 1.19531H13.9674L13.9335 1.52198C13.9231 1.62193 13.9488 1.72229 14.0058 1.80501C14.0629 1.88772 14.1476 1.94736 14.2447 1.97318C14.5285 2.04922 14.8056 2.14834 15.0733 2.26955V2.84611C15.0731 3.5334 14.8655 4.20462 14.4777 4.77204C14.0899 5.33946 13.5399 5.77666 12.8996 6.02648C12.2257 5.79688 11.6407 5.36185 11.2269 4.78255C10.813 4.20325 10.5912 3.50882 10.5924 2.79689V2.26997ZM8.29492 4.14246C8.69695 3.59711 9.1885 3.12383 9.7487 2.74275V2.79689C9.74712 3.69614 10.031 4.57269 10.5594 5.30031C11.0878 6.02792 11.8335 6.56905 12.6892 6.84577L12.7766 6.87389C12.8637 6.9023 12.9577 6.90151 13.0443 6.87164C13.8827 6.58309 14.6101 6.04007 15.1251 5.31833C15.64 4.59659 15.9169 3.73211 15.9171 2.84548V2.7412C16.4772 3.12108 16.9688 3.59317 17.3711 4.1374C18.1152 5.1536 18.5467 6.36476 18.6128 7.62251H7.05341C7.12171 6.36678 7.55299 5.15787 8.29492 4.14246ZM6.58583 9.25481C6.53361 9.25551 6.48177 9.24583 6.43332 9.22633C6.38488 9.20682 6.34079 9.17789 6.30361 9.14121C6.26644 9.10453 6.23692 9.06083 6.21677 9.01265C6.19663 8.96446 6.18625 8.91276 6.18625 8.86054C6.18625 8.80831 6.19663 8.75661 6.21677 8.70842C6.23692 8.66024 6.26644 8.61654 6.30361 8.57986C6.34079 8.54318 6.38488 8.51425 6.43332 8.49475C6.48177 8.47524 6.53361 8.46556 6.58583 8.46626H19.0799C19.1322 8.46556 19.184 8.47524 19.2324 8.49475C19.2809 8.51425 19.325 8.54318 19.3622 8.57986C19.3993 8.61654 19.4288 8.66024 19.449 8.70842C19.4691 8.75661 19.4795 8.80831 19.4795 8.86054C19.4795 8.91276 19.4691 8.96446 19.449 9.01265C19.4288 9.06083 19.3993 9.10453 19.3622 9.14121C19.325 9.17789 19.2809 9.20682 19.2324 9.22633C19.184 9.24583 19.1322 9.25551 19.0799 9.25481H17.5808C17.5802 9.25478 17.5797 9.25478 17.5791 9.25481H6.58583ZM18.0797 10.0986C18.0608 10.1995 18.0395 10.2999 18.0165 10.4V10.0986H18.0797ZM7.85532 10.0986V10.9692L7.79113 10.8079C7.69932 10.5767 7.62268 10.3398 7.5617 10.0986H7.85532ZM9.06153 15.6255L8.69401 13.2811C8.67844 13.1818 8.62788 13.0912 8.55146 13.0259C8.47503 12.9605 8.37777 12.9246 8.2772 12.9246H8.04425C7.98447 12.9253 7.92513 12.9142 7.86967 12.8918C7.81422 12.8695 7.76376 12.8363 7.72122 12.7943C7.67868 12.7523 7.64491 12.7022 7.62185 12.6471C7.5988 12.5919 7.58693 12.5327 7.58693 12.4729C7.58693 12.4131 7.5988 12.3539 7.62185 12.2988C7.64491 12.2436 7.67868 12.1935 7.72122 12.1515C7.76376 12.1095 7.81422 12.0764 7.86967 12.054C7.92513 12.0316 7.98447 12.0205 8.04425 12.0213H8.2772C8.38908 12.0213 8.49639 11.9768 8.57551 11.8977C8.65462 11.8186 8.69907 11.7113 8.69907 11.5994V10.0986H17.1729V11.5994C17.1729 11.7113 17.2173 11.8186 17.2964 11.8977C17.3755 11.9768 17.4828 12.0213 17.5947 12.0213H17.8162C17.8873 12.0723 17.9726 12.0996 18.0601 12.0996C18.0665 12.0996 18.0729 12.0984 18.0794 12.0981C18.1598 12.152 18.2208 12.2304 18.2532 12.3216C18.2857 12.4128 18.288 12.512 18.2598 12.6046C18.2316 12.6972 18.1744 12.7783 18.0966 12.8359C18.0188 12.8936 17.9245 12.9246 17.8277 12.9246H17.5947C17.4942 12.9246 17.3969 12.9605 17.3205 13.0259C17.2441 13.0913 17.1936 13.1818 17.178 13.2811L16.8105 15.6255C16.6656 16.549 16.1957 17.3904 15.4853 17.9981C14.7749 18.6058 13.8708 18.9397 12.936 18.9397C12.0012 18.9397 11.0971 18.6058 10.3867 17.9981C9.67633 17.3904 9.20637 16.549 9.06153 15.6255ZM10.4168 19.2575V19.0626C10.5071 19.1188 10.5992 19.1727 10.6936 19.2231C11.3835 19.5917 12.1537 19.7846 12.936 19.7846C13.7182 19.7846 14.4884 19.5917 15.1783 19.2231C15.2057 19.2085 15.2326 19.1932 15.2597 19.1781V20.8721C14.9504 21.2051 14.5756 21.4707 14.159 21.6523C13.7424 21.8339 13.2928 21.9276 12.8383 21.9276C12.3838 21.9276 11.9342 21.8339 11.5175 21.6523C11.1009 21.4707 10.7262 21.2051 10.4168 20.8721V19.4842C10.4377 19.4101 10.4377 19.3316 10.4168 19.2575ZM9.22852 20.2363L9.57306 20.0633V21.0321C9.5731 21.1319 9.60855 21.2285 9.67311 21.3047C10.0626 21.7643 10.5475 22.1335 11.0941 22.3868C11.6407 22.64 12.2359 22.7712 12.8383 22.7712C13.4407 22.7712 14.0359 22.64 14.5825 22.3868C15.129 22.1335 15.6139 21.7643 16.0034 21.3047C16.068 21.2285 16.1035 21.1318 16.1035 21.0319V19.9351L16.4371 20.1184V23.3211C16.4371 24.277 16.0574 25.1938 15.3814 25.8697C14.7055 26.5456 13.7888 26.9253 12.8329 26.9253C11.877 26.9253 10.9602 26.5456 10.2843 25.8697C9.60839 25.1938 9.22867 24.277 9.22867 23.3211L9.22852 20.2363ZM16.5834 34.8047H9.78371V31.1093C10.8575 31.5707 12.0136 31.8097 13.1824 31.8117C14.3511 31.8136 15.508 31.5786 16.5834 31.1208V34.8047ZM19.9714 34.8047H17.4271V30.4547C17.4271 30.3822 17.4084 30.3109 17.3728 30.2476C17.3372 30.1844 17.2859 30.1315 17.2238 30.0939C17.1618 30.0563 17.091 30.0353 17.0185 30.033C16.946 30.0308 16.8741 30.0472 16.8098 30.0808C15.6904 30.6658 14.4456 30.9702 13.1825 30.9678C11.9195 30.9655 10.6758 30.6565 9.55857 30.0674C9.49427 30.0335 9.4223 30.0167 9.34962 30.0188C9.27695 30.0209 9.20605 30.0417 9.1438 30.0793C9.08155 30.1168 9.03005 30.1698 8.99431 30.2331C8.95858 30.2964 8.9398 30.3679 8.93982 30.4406V34.8047H5.69441V21.5852C6.61725 21.3534 7.51763 21.0399 8.38492 20.6485V23.3215C8.38492 24.5012 8.85354 25.6326 9.6877 26.4667C10.5219 27.3009 11.6532 27.7695 12.8329 27.7695C14.0126 27.7695 15.1439 27.3009 15.9781 26.4667C16.8122 25.6326 17.2809 24.5012 17.2809 23.3215V20.5618C18.1423 20.9893 19.0434 21.3318 19.9714 21.5843V34.8047ZM24.1784 34.8047H20.8151V21.8222C21.8013 22.1716 22.6546 22.8187 23.2571 23.6741C23.8596 24.5295 24.1815 25.5509 24.1784 26.5971V34.8047Z" fill="#E2AC24"/>
<path d="M12.8329 24.5486C12.9429 24.5486 13.0504 24.516 13.1419 24.4549C13.2333 24.3938 13.3046 24.3069 13.3467 24.2053C13.3888 24.1037 13.3998 23.9919 13.3784 23.884C13.3569 23.7761 13.304 23.677 13.2262 23.5992C13.1484 23.5214 13.0493 23.4685 12.9414 23.447C12.8336 23.4256 12.7217 23.4366 12.6201 23.4787C12.5185 23.5208 12.4316 23.5921 12.3705 23.6835C12.3094 23.775 12.2768 23.8825 12.2769 23.9925C12.277 24.1399 12.3357 24.2813 12.4399 24.3855C12.5441 24.4897 12.6855 24.5484 12.8329 24.5486Z" fill="#E2AC24"/>
<path d="M12.8329 26.2932C12.9429 26.2933 13.0504 26.2607 13.1419 26.1996C13.2333 26.1385 13.3046 26.0516 13.3467 25.95C13.3888 25.8484 13.3998 25.7366 13.3784 25.6287C13.3569 25.5208 13.304 25.4217 13.2262 25.3439C13.1484 25.2662 13.0493 25.2132 12.9415 25.1917C12.8336 25.1703 12.7218 25.1813 12.6202 25.2234C12.5185 25.2654 12.4317 25.3367 12.3706 25.4282C12.3095 25.5196 12.2769 25.6271 12.2769 25.7371C12.277 25.8846 12.3356 26.0259 12.4399 26.1302C12.5441 26.2344 12.6855 26.2931 12.8329 26.2932Z" fill="#E2AC24"/>
<path d="M35.2346 13.8885L35.2175 13.8702C35.1704 13.8199 35.1117 13.7819 35.0465 13.7595C34.9813 13.7371 34.9116 13.731 34.8436 13.7418C34.7755 13.7526 34.7111 13.7799 34.656 13.8213C34.6009 13.8627 34.5568 13.917 34.5276 13.9794L32.4491 16.0578L29.7577 15.558L29.2579 12.8665L31.4085 10.7161C31.4477 10.6769 31.4788 10.6304 31.5001 10.5792C31.5213 10.528 31.5322 10.4731 31.5322 10.4177C31.5322 10.3622 31.5213 10.3073 31.5001 10.2561C31.4788 10.2049 31.4477 10.1584 31.4085 10.1192L31.3902 10.1009C31.3207 10.0315 31.2292 9.98855 31.1313 9.97943C30.0923 9.88166 29.0505 10.1354 28.1729 10.7001C27.2952 11.2647 26.6324 12.1076 26.2907 13.0937C25.9489 14.0797 25.948 15.152 26.2881 16.1386C26.6281 17.1253 27.2894 17.9693 28.1661 18.5355V29.6578C27.6201 30.0919 27.2226 30.6851 27.0288 31.3552C26.8349 32.0252 26.8543 32.739 27.0842 33.3976C27.3141 34.0562 27.7432 34.6269 28.3119 35.0308C28.8806 35.4347 29.5609 35.6516 30.2585 35.6516C30.956 35.6516 31.6363 35.4347 32.2051 35.0308C32.7738 34.6269 33.2029 34.0562 33.4328 33.3976C33.6627 32.739 33.682 32.0252 33.4882 31.3552C33.2943 30.6851 32.8969 30.0919 32.3508 29.6578V18.9764C33.294 18.6191 34.0956 17.9653 34.6352 17.1131C35.1747 16.261 35.423 15.2568 35.3426 14.2514C35.3541 14.1867 35.3503 14.1202 35.3316 14.0572C35.3129 13.9942 35.2797 13.9364 35.2346 13.8885ZM32.7763 32.2863C32.7763 32.7844 32.6286 33.2714 32.3519 33.6855C32.0752 34.0997 31.6819 34.4225 31.2217 34.6131C30.7615 34.8037 30.2552 34.8536 29.7667 34.7564C29.2781 34.6593 28.8294 34.4194 28.4772 34.0672C28.125 33.715 27.8851 33.2663 27.7879 32.7778C27.6908 32.2892 27.7406 31.7829 27.9312 31.3227C28.1218 30.8625 28.4446 30.4692 28.8588 30.1925C29.2729 29.9157 29.7598 29.768 30.2579 29.768C30.9256 29.7688 31.5657 30.0343 32.0378 30.5065C32.51 30.9786 32.7755 31.6187 32.7763 32.2863ZM29.0093 29.1656V18.965C29.8038 19.273 30.6676 19.3569 31.5065 19.2078V29.1656C30.7052 28.8438 29.8106 28.8438 29.0093 29.1656ZM33.3946 17.3199C32.9691 17.7452 32.4491 18.0638 31.8771 18.25C31.305 18.4361 30.6971 18.4844 30.1028 18.391C29.5086 18.2975 28.9448 18.065 28.4575 17.7123C27.9702 17.3596 27.5731 16.8967 27.2987 16.3614C27.0243 15.8261 26.8802 15.2335 26.8783 14.6319C26.8763 14.0304 27.0166 13.4369 27.2876 12.8998C27.5586 12.3628 27.9527 11.8973 28.4377 11.5415C28.9228 11.1857 29.485 10.9495 30.0787 10.8523L28.5042 12.4268C28.4558 12.4752 28.4199 12.5347 28.3996 12.6001C28.3793 12.6655 28.3752 12.7349 28.3878 12.8022L28.9811 15.9968C28.9967 16.0805 29.0373 16.1576 29.0975 16.2178C29.1578 16.2781 29.2349 16.3187 29.3186 16.3343L32.5132 16.9276C32.5805 16.9401 32.6499 16.9361 32.7152 16.9158C32.7806 16.8955 32.8401 16.8596 32.8885 16.8112L34.4635 15.2362C34.3354 16.026 33.9614 16.7552 33.3946 17.32V17.3199Z" fill="#E2AC24"/>
<path d="M12.1499 4.56659H13.6634C13.7753 4.56659 13.8826 4.52214 13.9618 4.44302C14.0409 4.36391 14.0853 4.2566 14.0853 4.14471C14.0853 4.03283 14.0409 3.92552 13.9618 3.8464C13.8826 3.76729 13.7753 3.72284 13.6634 3.72284H12.1499C12.038 3.72284 11.9307 3.76729 11.8516 3.8464C11.7725 3.92552 11.728 4.03283 11.728 4.14471C11.728 4.2566 11.7725 4.36391 11.8516 4.44302C11.9307 4.52214 12.038 4.56659 12.1499 4.56659Z" fill="#E2AC24"/>
<path d="M12.1499 3.17108H13.6634C13.7753 3.17108 13.8826 3.12663 13.9618 3.04752C14.0409 2.9684 14.0853 2.86109 14.0853 2.74921C14.0853 2.63732 14.0409 2.53001 13.9618 2.4509C13.8826 2.37178 13.7753 2.32733 13.6634 2.32733H12.1499C12.038 2.32733 11.9307 2.37178 11.8516 2.4509C11.7725 2.53001 11.728 2.63732 11.728 2.74921C11.728 2.86109 11.7725 2.9684 11.8516 3.04752C11.9307 3.12663 12.038 3.17108 12.1499 3.17108Z" fill="#E2AC24"/>
</g>
<defs>
<clipPath id="clip0_84_299">
<rect width="36" height="36" fill="white"/>
</clipPath>
</defs>
</svg>
