<svg width="36" height="36" viewBox="0 0 36 36" fill="none" xmlns="http://www.w3.org/2000/svg">
<g clip-path="url(#clip0_84_287)">
<path d="M33.75 12.9375H28.4726L27.3476 10.6875H23.0625V9.5625H25.3125V3.375C25.3125 1.82419 24.0508 0.5625 22.5 0.5625C21.3154 0.5625 20.3046 1.30106 19.8906 2.33944L17.0707 0.883125C16.2585 0.4635 15.2426 0.4635 14.4298 0.883125L5.99512 5.24025C5.59237 5.44163 5.292 5.78869 5.14969 6.21619C5.00681 6.64425 5.03944 7.10156 5.24081 7.50431C5.52825 8.07975 6.1065 8.4375 6.75056 8.4375C6.94125 8.4375 7.12969 8.39306 7.3125 8.32837V10.6875H4.15237L0.5625 17.8673V20.8125H2.8125V35.4375H28.6875V31.3965C28.8641 31.4595 29.052 31.5 29.25 31.5C30.1804 31.5 30.9375 30.7429 30.9375 29.8125V21.375V20.8125V20.25H33.75C34.6804 20.25 35.4375 19.4929 35.4375 18.5625V14.625C35.4375 13.6946 34.6804 12.9375 33.75 12.9375ZM26.6524 11.8125L27.2149 12.9375H23.625C23.3151 12.9375 23.0625 12.6855 23.0625 12.375V11.8125H26.6524ZM23.0625 13.959V14.0625H18.5625V10.125C18.5625 8.57419 17.3008 7.3125 15.75 7.3125C14.1992 7.3125 12.9375 8.57419 12.9375 10.125V14.0625H8.4375V7.77825L15.75 4.00781L19.6875 6.03788V9.5625H21.9375V12.375C21.9375 13.1074 22.4094 13.7261 23.0625 13.959ZM17.4375 14.0625H14.0625V10.125C14.0625 9.19462 14.8196 8.4375 15.75 8.4375C16.6804 8.4375 17.4375 9.19462 17.4375 10.125V14.0625ZM20.8125 3.375C20.8125 2.44463 21.5696 1.6875 22.5 1.6875C23.4304 1.6875 24.1875 2.44463 24.1875 3.375V8.4375H20.8125V3.375ZM6.24656 7.00144C6.17962 6.86756 6.16894 6.71512 6.21675 6.57169C6.264 6.42881 6.36413 6.3135 6.50475 6.24319L14.9456 1.88325C15.4406 1.62731 16.0594 1.62731 16.5538 1.88325L19.6875 3.501V4.77225L15.75 2.74219L7.00087 7.25344C6.72862 7.389 6.381 7.26975 6.24656 7.00144ZM4.84762 11.8125H7.3125V15.1875H24.1875V14.0625H27.7774L28.9024 16.3125H14.625C13.8926 16.3125 13.2739 16.7844 13.041 17.4375H2.03513L4.84762 11.8125ZM14.0625 23.0625V25.3125H11.8125V23.0625H14.0625ZM1.6875 18.5625H12.9375V19.6875H1.6875V18.5625ZM27.5625 34.3125H3.9375V20.8125H12.9375V21.375C12.9375 21.573 12.978 21.7609 13.041 21.9375H10.6875V26.4375H15.1875V23.0625H16.3125V26.4375H18.6666C18.9006 27.0906 19.5244 27.5619 20.2832 27.5631C21.1956 27.5631 21.9375 26.8211 21.9375 25.9088V25.8519C21.9375 25.5493 22.1698 25.3125 22.5 25.3125C22.6502 25.3125 22.7914 25.371 22.8977 25.4773C23.004 25.5831 23.0625 25.7243 23.0625 25.875L23.0619 31.5332C23.0619 31.9747 23.2341 32.3904 23.5462 32.7032C23.8584 33.0159 24.2741 33.1875 24.7444 33.1875C25.1972 33.1875 25.6224 33.012 25.9419 32.6948C26.262 32.3764 26.4381 31.9522 26.4375 31.5006V28.6864C26.4375 28.3764 26.6901 28.125 27 28.125C27.3099 28.125 27.5625 28.377 27.5625 28.6875V29.25V29.8125V34.3125ZM18.5625 25.3125H17.4375V23.0625H18.5625V25.3125ZM29.25 30.375C28.9401 30.375 28.6875 30.123 28.6875 29.8125V29.25V28.6875C28.6875 27.7571 27.9304 27 27 27C26.0696 27 25.3125 27.7566 25.3125 28.6864V31.5006C25.3125 31.6513 25.254 31.7919 25.1483 31.8971C24.9576 32.0867 24.57 32.1356 24.3416 31.9078C24.2415 31.8077 24.1869 31.6749 24.1869 31.5332L24.1875 25.875C24.1875 25.4244 24.012 25.0003 23.6936 24.6819C23.3747 24.3636 22.9506 24.1875 22.4662 24.1875C21.5544 24.1875 20.8125 24.9339 20.8125 25.8519V25.9088C20.8125 26.2013 20.5751 26.4381 20.25 26.4381C19.9401 26.4381 19.6875 26.1855 19.6875 25.8756V23.0625H29.25C29.448 23.0625 29.6359 23.022 29.8125 22.959V29.8125C29.8125 30.123 29.5599 30.375 29.25 30.375ZM29.8125 21.375C29.8125 21.6855 29.5599 21.9375 29.25 21.9375H15.1875H14.625C14.3151 21.9375 14.0625 21.6855 14.0625 21.375V18C14.0625 17.6895 14.3151 17.4375 14.625 17.4375H29.25C29.5599 17.4375 29.8125 17.6895 29.8125 18V20.8125V21.375ZM34.3125 18.5625C34.3125 18.873 34.0599 19.125 33.75 19.125H30.9375V18C30.9375 17.5067 30.7215 17.0668 30.3829 16.758L29.0351 14.0625H33.75C34.0599 14.0625 34.3125 14.3145 34.3125 14.625V18.5625Z" fill="#E2AC24"/>
<path d="M5.0625 26.4375H9.5625V21.9375H5.0625V26.4375ZM6.1875 23.0625H8.4375V25.3125H6.1875V23.0625Z" fill="#E2AC24"/>
<path d="M5.0625 33.1875H9.5625V28.6875H5.0625V33.1875ZM6.1875 29.8125H8.4375V32.0625H6.1875V29.8125Z" fill="#E2AC24"/>
<path d="M10.6875 33.1875H15.1875V28.6875H10.6875V33.1875ZM11.8125 29.8125H14.0625V32.0625H11.8125V29.8125Z" fill="#E2AC24"/>
<path d="M16.3125 33.1875H20.8125V28.6875H16.3125V33.1875ZM17.4375 29.8125H19.6875V32.0625H17.4375V29.8125Z" fill="#E2AC24"/>
</g>
<defs>
<clipPath id="clip0_84_287">
<rect width="36" height="36" fill="white"/>
</clipPath>
</defs>
</svg>
