<svg width="36" height="36" viewBox="0 0 36 36" fill="none" xmlns="http://www.w3.org/2000/svg">
<g clip-path="url(#clip0_84_479)">
<path d="M29.5817 13.4875C29.873 13.4875 30.1091 13.2514 30.1091 12.9601V10.6438C30.1091 10.4561 30.0093 10.2826 29.847 10.1881L22.5879 5.96166L18.4272 0.217969C18.328 0.0810703 18.1692 0 18.0001 0C17.8311 0 17.6723 0.0810703 17.573 0.217969L13.4122 5.96166L6.15317 10.1881C5.99089 10.2825 5.89111 10.456 5.89111 10.6438V12.9601C5.89111 13.2513 6.12715 13.4874 6.41846 13.4874C6.70976 13.4874 6.9458 13.2513 6.9458 12.9601V11.1711H13.1489V14.6081L6.15317 18.6813C5.99089 18.7757 5.89111 18.9492 5.89111 19.137V21.4533C5.89111 21.7445 6.12715 21.9806 6.41846 21.9806C6.70976 21.9806 6.9458 21.7445 6.9458 21.4533V19.6643H13.1489V23.2727L12.0826 26.7549C11.9973 27.0333 12.154 27.3282 12.4324 27.4135C12.4839 27.4293 12.5359 27.4368 12.587 27.4368C12.8127 27.4368 13.0216 27.2907 13.091 27.0637L13.946 24.2717L17.2497 27.5351L11.0807 33.6289L12.4835 29.0474C12.5688 28.7689 12.4122 28.474 12.1337 28.3887C11.8552 28.3035 11.5604 28.4601 11.4751 28.7386L9.46039 35.3183C9.38965 35.5493 9.48493 35.7988 9.6915 35.9239C9.77616 35.9751 9.87059 36.0001 9.96446 36.0001C10.0997 36.0001 10.2338 35.9481 10.3351 35.8479L18.0001 28.2763L25.665 35.8478C25.7665 35.948 25.9005 36 26.0357 36C26.1296 36 26.2241 35.975 26.3087 35.9238C26.5153 35.7987 26.6105 35.5492 26.5398 35.3182L22.8512 23.2727V19.6643H29.0544V21.4533C29.0544 21.7445 29.2904 21.9806 29.5817 21.9806C29.873 21.9806 30.1091 21.7445 30.1091 21.4533V19.137C30.1091 18.9492 30.0093 18.7757 29.847 18.6813L22.8512 14.6081V11.1711H29.0544V12.9601C29.0544 13.2514 29.2905 13.4875 29.5817 13.4875ZM21.7966 22.0982L18.7505 19.0892L21.7966 16.0803V22.0982ZM14.2036 16.0803L17.2497 19.0892L14.2036 22.0982V16.0803ZM15.0093 15.3937H20.9909L18.0001 18.348L15.0093 15.3937ZM21.7966 13.6523L18.7505 10.6433L21.7966 7.63439V13.6523ZM20.9909 14.339H15.0093L18.0001 11.3846L20.9909 14.339ZM14.2036 13.6523V7.63446L17.2497 10.6434L14.2036 13.6523ZM18.0001 19.8304L21.0563 22.8495H14.9437L18.0001 19.8304ZM18.0001 1.42622L21.2016 5.84571H17.688C17.3967 5.84571 17.1607 6.08182 17.1607 6.37305C17.1607 6.66429 17.3967 6.9004 17.688 6.9004H21.0388L18.0001 9.90204L14.9614 6.9004H15.5787C15.87 6.9004 16.106 6.66429 16.106 6.37305C16.106 6.08182 15.87 5.84571 15.5787 5.84571H14.7985L18.0001 1.42622ZM8.3723 10.1164L13.1489 7.33528V10.1164H8.3723ZM8.3723 18.6096L13.1489 15.8285V18.6096H8.3723ZM15.0748 23.9042H20.9254L18.0001 26.7938L15.0748 23.9042ZM18.7505 27.5351L22.0542 24.2717L24.9196 33.6289L18.7505 27.5351ZM27.6279 18.6096H22.8513V15.8285L27.6279 18.6096ZM22.8513 7.33528L27.6279 10.1164H22.8513V7.33528Z" fill="#E2AC24"/>
</g>
<defs>
<clipPath id="clip0_84_479">
<rect width="36" height="36" fill="white"/>
</clipPath>
</defs>
</svg>
