<svg width="36" height="36" viewBox="0 0 36 36" fill="none" xmlns="http://www.w3.org/2000/svg">
<path d="M32.028 4.53691H31.1648V1.90547C31.1648 0.854789 30.3099 0 29.2593 0H6.07682C5.02614 0 4.17135 0.854789 4.17135 1.90547V2.1548H2.5948C2.30294 2.1548 2.06641 2.39133 2.06641 2.6832V7.44743C2.06641 7.7393 2.30294 7.97583 2.5948 7.97583H4.17135V8.22523C4.17135 9.27591 5.02614 10.1307 6.07682 10.1307H9.5395V12.7611C9.5395 13.9124 10.4761 14.849 11.6274 14.849C12.7787 14.849 13.7153 13.9124 13.7153 12.7611V10.1307H21.9117C22.2036 10.1307 22.4401 9.89416 22.4401 9.6023C22.4401 9.31043 22.2036 9.0739 21.9117 9.0739H13.7152V4.70363C13.7152 4.13508 14.1778 3.67256 14.7464 3.67256C15.3149 3.67256 15.7774 4.13508 15.7774 4.70363V5.88797C15.7774 7.0392 16.714 7.97583 17.8653 7.97583C19.0166 7.97583 19.9532 7.0392 19.9532 5.88797V1.0568H29.2593C29.7273 1.0568 30.108 1.43754 30.108 1.90547V8.22523C30.108 8.69323 29.7273 9.07397 29.2593 9.07397H24.0251C23.7333 9.07397 23.4967 9.3105 23.4967 9.60237C23.4967 9.89423 23.7333 10.1308 24.0251 10.1308H29.2593C30.3099 10.1308 31.1648 9.27605 31.1648 8.2253V5.59371H32.028C32.496 5.59371 32.8768 5.97445 32.8768 6.44238V10.5056C32.8768 10.9188 32.5813 11.2704 32.1744 11.3415L19.3363 13.5887C18.4226 13.7486 17.7594 14.5379 17.7594 15.4656V17.3063H16.2607C15.9688 17.3063 15.7323 17.5428 15.7323 17.8347V19.8193H15.6176C15.3257 19.8193 15.0892 20.0559 15.0892 20.3477V32.8015C15.0892 34.5651 16.5241 36 18.2877 36C20.0514 36 21.4862 34.5651 21.4862 32.8015V28.65C21.4862 28.3581 21.2497 28.1216 20.9578 28.1216C20.666 28.1216 20.4294 28.3581 20.4294 28.65V32.8015C20.4294 33.9825 19.4687 34.9433 18.2876 34.9433C17.1067 34.9433 16.1459 33.9825 16.1459 32.8015V20.8761H20.4294V26.5364C20.4294 26.8283 20.666 27.0648 20.9578 27.0648C21.2497 27.0648 21.4862 26.8283 21.4862 26.5364V20.3477C21.4862 20.0558 21.2497 19.8193 20.9578 19.8193H20.8431V17.8346C20.8431 17.5428 20.6065 17.3062 20.3147 17.3062H18.816V15.4655C18.816 15.0523 19.1114 14.7007 19.5184 14.6296L32.3564 12.3825C33.2702 12.2226 33.9334 11.4332 33.9334 10.5055V6.44238C33.9336 5.3917 33.0787 4.53691 32.028 4.53691ZM3.1232 6.91903V3.21152H4.17135V6.91903H3.1232ZM18.8965 5.88797C18.8965 6.45652 18.434 6.91903 17.8654 6.91903C17.2969 6.91903 16.8342 6.45652 16.8342 5.88797V4.70363C16.8342 3.5524 15.8976 2.61577 14.7464 2.61577C13.5951 2.61577 12.6584 3.5524 12.6584 4.70363V12.761C12.6584 13.3296 12.1958 13.7921 11.6273 13.7921C11.0587 13.7921 10.5962 13.3296 10.5962 12.761V6.12211C10.5962 5.83024 10.3597 5.59371 10.0678 5.59371C9.77596 5.59371 9.53943 5.83024 9.53943 6.12211V9.0739H6.07682C5.60889 9.0739 5.22815 8.69316 5.22815 8.22516V1.90547C5.22815 1.43747 5.60889 1.0568 6.07682 1.0568H9.5395V4.00859C9.5395 4.30045 9.77603 4.53698 10.0679 4.53698C10.3598 4.53698 10.5963 4.30045 10.5963 4.00859V1.05673H18.8965V5.88797ZM19.7864 19.8193H16.7891V18.3631H19.7864V19.8193Z" fill="#E2AC24"/>
</svg>
